<?xml version="1.0" encoding="iso-8859-1"?>
<!-- Generator: Adobe Illustrator 25.4.1, SVG Export Plug-In . SVG Version: 6.00 Build 0)  -->
<svg version="1.1" baseProfile="basic" id="Layer_1"
	 xmlns="http://www.w3.org/2000/svg" xmlns:xlink="http://www.w3.org/1999/xlink" x="0px" y="0px" viewBox="0 0 100 100"
	 xml:space="preserve">
<path style="fill:none;stroke:#000000;stroke-width:4;stroke-linecap:round;stroke-linejoin:round;stroke-miterlimit:10;" d="
	M82.838,23.716c-0.021-1.489-0.662-2.901-1.769-3.897c-1.107-0.996-2.579-1.485-4.061-1.35c-18.315,1.615-33.898-1.108-51.098-0.849
	c-1.625,0.036-3.169,0.718-4.29,1.895c-1.121,1.177-1.728,2.751-1.686,4.376c0.26,16.911-1.599,34.222-0.673,50.573
	c0.239,3.392,2.962,6.078,6.357,6.271c18.318,1.033,35.46,1.21,50.887,0.157c3.424-0.258,6.022-3.193,5.862-6.623
	C81.122,52.053,83.642,74.101,82.838,23.716z"/>
<!-- <path style="fill:none;stroke:#000000;stroke-width:4;stroke-linecap:round;stroke-linejoin:round;stroke-miterlimit:10;" d="
	M34.621,48L48,65c0,0,15.063-18.072,24-25.993"/> -->
<line style="fill:none;stroke:#000000;stroke-width:2;stroke-linecap:round;stroke-linejoin:round;stroke-miterlimit:10;" x1="20.424" y1="57.598" x2="23.421" y2="57.426"/>
<line style="fill:none;stroke:#000000;stroke-width:2;stroke-linecap:round;stroke-linejoin:round;stroke-miterlimit:10;" x1="20.248" y1="52.469" x2="23.245" y2="52.297"/>
<line style="fill:none;stroke:#000000;stroke-width:2;stroke-linecap:round;stroke-linejoin:round;stroke-miterlimit:10;" x1="69.585" y1="22.415" x2="73" y2="19"/>
<line style="fill:none;stroke:#000000;stroke-width:2;stroke-linecap:round;stroke-linejoin:round;stroke-miterlimit:10;" x1="64.898" y1="22.316" x2="68.313" y2="18.9"/>
<line style="fill:none;stroke:#000000;stroke-width:2;stroke-linecap:round;stroke-linejoin:round;stroke-miterlimit:10;" x1="74" y1="24.55" x2="78.756" y2="19.794"/>
<line style="fill:none;stroke:#000000;stroke-width:2;stroke-linecap:round;stroke-linejoin:round;stroke-miterlimit:10;" x1="78.019" y1="27.202" x2="82.776" y2="22.446"/>
<line style="fill:none;stroke:#000000;stroke-width:2;stroke-linecap:round;stroke-linejoin:round;stroke-miterlimit:10;" x1="79.793" y1="30.934" x2="82.776" y2="28.558"/>
<line style="fill:none;stroke:#000000;stroke-width:2;stroke-linecap:round;stroke-linejoin:round;stroke-miterlimit:10;" x1="80.163" y1="36.021" x2="83.146" y2="33.645"/>
<line style="fill:none;stroke:#000000;stroke-width:2;stroke-linecap:round;stroke-linejoin:round;stroke-miterlimit:10;" x1="20.873" y1="63.267" x2="25.421" y2="62.501"/>
<line style="fill:none;stroke:#000000;stroke-width:2;stroke-linecap:round;stroke-linejoin:round;stroke-miterlimit:10;" x1="20.873" y1="69.264" x2="26.373" y2="68.171"/>
<line style="fill:none;stroke:#000000;stroke-width:2;stroke-linecap:round;stroke-linejoin:round;stroke-miterlimit:10;" x1="20.873" y1="76.643" x2="26.373" y2="74.167"/>
<line style="fill:none;stroke:#000000;stroke-width:2;stroke-linecap:round;stroke-linejoin:round;stroke-miterlimit:10;" x1="27" y1="80" x2="32" y2="76"/>
<line style="fill:none;stroke:#000000;stroke-width:2;stroke-linecap:round;stroke-linejoin:round;stroke-miterlimit:10;" x1="34.621" y1="80" x2="38" y2="76.643"/>
<line style="fill:none;stroke:#000000;stroke-width:2;stroke-linecap:round;stroke-linejoin:round;stroke-miterlimit:10;" x1="40.809" y1="81.226" x2="44.188" y2="77.869"/>
<!-- <circle style="fill-rule:evenodd;clip-rule:evenodd;" cx="34.996" cy="30.618" r="1"/>
<circle style="fill-rule:evenodd;clip-rule:evenodd;" cx="43.188" cy="30.618" r="1"/>
<circle style="fill-rule:evenodd;clip-rule:evenodd;" cx="39.996" cy="35.021" r="1"/> -->
</svg>